<?xml version="1.0" encoding="UTF-8" standalone="no"?>
<!DOCTYPE svg PUBLIC "-//W3C//DTD SVG 1.1//EN" "http://www.w3.org/Graphics/SVG/1.1/DTD/svg11.dtd">
<svg width="100%" height="100%" viewBox="0 0 298 369" version="1.1" xmlns="http://www.w3.org/2000/svg" xmlns:xlink="http://www.w3.org/1999/xlink" xml:space="preserve" xmlns:serif="http://www.serif.com/" style="fill-rule:evenodd;clip-rule:evenodd;stroke-linejoin:round;stroke-miterlimit:2;">
    <g transform="matrix(1,0,0,1,-10872,-570.287)">
        <g transform="matrix(4.16667,0,0,4.16667,9000,0)">
            <g transform="matrix(1,0,0,1,484.873,144.108)">
                <path d="M0,73.654C1.259,72.781 2.485,72.242 3.282,71.329C9.217,64.526 15.088,57.666 20.937,50.788C23.88,47.328 26.753,43.807 29.621,40.283C30.844,38.78 30.699,38.515 28.984,37.479C28.031,36.904 27.026,36.246 26.37,35.379C23.902,32.119 21.617,28.722 19.174,25.443C13.203,17.427 7.192,9.44 1.171,1.462C0.029,-0.051 -0.386,-0.033 -1.571,1.353C-3.565,3.684 -5.626,5.963 -7.507,8.382C-15.282,18.381 -22.995,28.428 -30.744,38.447C-31.75,39.748 -31.982,40.989 -30.698,42.226C-25.672,47.069 -20.693,51.963 -15.593,56.727C-12.311,59.792 -8.929,62.724 -6.549,66.616C-5.574,68.21 -4.475,69.755 -3.24,71.152C-2.42,72.079 -1.26,72.704 0,73.654M35.862,37.11C35.716,37.366 35.503,37.896 35.158,38.318C29.055,45.796 22.985,53.301 16.801,60.712C13.382,64.809 9.733,68.714 6.268,72.772C5.4,73.788 4.931,75.135 4.116,76.206C2.819,77.913 1.469,79.601 -0.054,81.1C-0.41,81.45 -1.78,81.274 -2.255,80.855C-2.699,80.462 -2.617,79.43 -2.672,78.672C-2.688,78.448 -2.405,78.182 -2.222,77.968C-1.278,76.861 -1.621,76.166 -2.765,75.384C-5.149,73.755 -7.652,72.199 -9.694,70.194C-13.374,66.581 -16.796,62.7 -20.242,58.856C-23.767,54.924 -27.179,50.891 -30.675,46.933C-31.149,46.397 -31.764,45.9 -32.415,45.617C-35.369,44.333 -36.429,41.125 -34.874,38.329C-29.816,29.237 -23.333,21.225 -16.476,13.448C-10.996,7.232 -5.845,0.726 -0.574,-5.674C1.174,-7.796 1.687,-7.79 3.271,-5.476C11.234,6.148 19.2,17.769 27.175,29.385C27.979,30.555 28.826,31.697 29.698,32.817C30.653,34.045 31.736,34.847 33.497,34.4C34.821,34.065 35.889,35.287 35.862,37.11" style="fill:rgb(208,244,255);fill-rule:nonzero;"/>
            </g>
            <g transform="matrix(1,0,0,1,470.738,185.313)">
                <path d="M0,-11.802C-0.178,-11.857 -0.356,-11.912 -0.534,-11.966C-1.113,-11.108 -1.725,-10.269 -2.265,-9.386C-3.647,-7.124 -2.825,-5.71 0.006,-5.509C0.004,-7.614 0.002,-9.708 0,-11.802M3.063,12.396C2.11,11.136 1.119,10.298 0.773,9.247C0.341,7.937 0.412,6.453 0.319,5.041C0.247,3.966 0.334,2.878 0.216,1.81C-0.081,-0.886 -2.949,-3.205 -5.642,-2.812C-6.305,-2.715 -6.986,-2.047 -7.461,-1.477C-9.142,0.536 -10.539,1.185 -11.66,0.108C-13.304,-1.474 -11.496,-2.559 -10.803,-3.664C-6.912,-9.863 -2.946,-16.015 1.022,-22.166C1.537,-22.964 1.891,-24.198 3.301,-23.628C4.595,-23.104 5.087,-21.731 4.869,-20.348C4.391,-17.327 3.906,-14.29 3.727,-11.242C3.461,-6.713 3.372,-2.169 3.382,2.368C3.386,4.271 3.848,6.171 4.081,8.076C4.191,8.971 4.356,9.88 4.289,10.768C4.258,11.176 3.729,11.546 3.063,12.396" style="fill:rgb(208,244,255);fill-rule:nonzero;"/>
            </g>
            <g transform="matrix(1,0,0,1,495.456,176.956)">
                <path d="M0,11.346C0.506,9.517 1.027,7.692 1.513,5.858C2.211,3.222 2.801,0.553 3.622,-2.043C3.846,-2.752 4.721,-3.734 5.317,-3.748C6.546,-3.777 6.784,-2.513 6.575,-1.573C5.898,1.47 5.245,4.54 4.248,7.486C2.446,12.808 0.409,18.051 -1.545,23.321C-1.965,24.454 -2.543,25.425 -4.033,25.021C-5.432,24.641 -5.701,23.591 -5.535,22.354C-4.07,11.447 -4.256,0.476 -4.244,-10.488C-4.244,-11.167 -4.328,-11.908 -4.089,-12.507C-3.844,-13.121 -3.293,-13.966 -2.796,-14.024C-2.32,-14.079 -1.424,-13.343 -1.268,-12.797C-0.807,-11.175 -0.457,-9.484 -0.37,-7.804C-0.27,-5.886 -0.522,-3.952 -0.582,-2.023C-0.699,1.78 -0.802,5.584 -0.875,9.388C-0.888,10.024 -0.723,10.664 -0.64,11.302C-0.427,11.317 -0.213,11.331 0,11.346" style="fill:rgb(208,244,255);fill-rule:nonzero;"/>
            </g>
            <g transform="matrix(1,0,0,1,482.692,203.832)">
                <path d="M0,-39.15C-0.449,-32.836 -0.894,-27.176 -1.237,-21.51C-1.402,-18.791 -1.357,-16.06 -1.444,-13.335C-1.492,-11.805 -1.563,-10.271 -1.713,-8.748C-2.135,-4.468 -0.435,-1.114 2.731,1.611C4.291,2.952 4.863,4.292 3.975,4.984C2.504,6.128 1.581,4.752 0.654,3.951C-0.891,2.616 -2.536,1.321 -3.769,-0.276C-4.567,-1.31 -5.089,-2.855 -5.074,-4.164C-5.009,-9.782 -4.672,-15.397 -4.485,-21.014C-4.239,-28.392 -4.067,-35.771 -3.783,-43.147C-3.755,-43.868 -3.163,-44.568 -2.833,-45.278C-2.074,-44.708 -0.879,-44.276 -0.645,-43.54C-0.142,-41.952 -0.133,-40.207 0,-39.15" style="fill:rgb(208,244,255);fill-rule:nonzero;"/>
            </g>
            <g transform="matrix(1,0,0,1,489.036,184.416)">
                <path d="M0,-20.197C-0.484,-14.155 -1.022,-8.116 -1.43,-2.069C-1.632,0.927 -1.592,3.939 -1.664,6.943C-1.691,8.06 -1.699,9.213 -3.277,9.207C-4.495,9.202 -5.31,8.159 -5.266,6.725C-5.062,-0.019 -4.884,-6.764 -4.645,-13.507C-4.484,-18.039 -4.221,-22.568 -4.037,-27.099C-3.991,-28.232 -3.657,-29.41 -2.473,-29.281C-1.739,-29.201 -0.701,-28.126 -0.542,-27.347C-0.207,-25.706 -0.355,-23.966 -0.315,-22.266C-0.299,-21.585 -0.311,-20.903 -0.311,-20.222C-0.207,-20.214 -0.104,-20.205 0,-20.197" style="fill:rgb(208,244,255);fill-rule:nonzero;"/>
            </g>
            <g transform="matrix(1,0,0,1,506.12,191.004)">
                <path d="M0,-10.047C-0.807,-8.909 -0.664,-8.191 0.659,-7.671C1.233,-7.445 1.674,-6.884 2.175,-6.476C1.606,-6.077 1.089,-5.513 0.457,-5.308C-1.996,-4.513 -2.513,-3.683 -1.545,-1.789C-0.861,-2.217 -0.213,-2.732 0.522,-3.035C0.855,-3.172 1.529,-3.02 1.738,-2.755C1.912,-2.533 1.778,-1.829 1.536,-1.556C-0.385,0.61 -2.332,2.757 -4.361,4.823C-4.704,5.172 -5.628,5.366 -6.007,5.149C-6.389,4.93 -6.667,4.066 -6.574,3.56C-6.08,0.882 -5.489,-1.78 -4.867,-4.433C-4.257,-7.03 -3.569,-9.61 -2.914,-12.197C-2.193,-15.047 -0.95,-15.413 1.162,-13.383C1.653,-12.912 2.206,-12.45 2.523,-11.871C2.794,-11.378 3.027,-10.562 2.795,-10.183C2.577,-9.826 1.736,-9.781 1.158,-9.735C0.795,-9.706 0.413,-9.927 0,-10.047" style="fill:rgb(208,244,255);fill-rule:nonzero;"/>
            </g>
        </g>
    </g>
</svg>
